<svg width="141" height="42" viewBox="0 0 141 42" fill="none" xmlns="http://www.w3.org/2000/svg">
<g clip-path="url(#clip0_242_5281)">
<path d="M129.401 0.0001365H11.7048C11.2758 0.0001365 10.8519 0.0001365 10.4241 0.0022365C10.0659 0.0043365 9.71055 0.010437 9.34894 0.0155715C8.56334 0.0238684 7.77958 0.0858966 7.00449 0.201117C6.23048 0.318846 5.48073 0.540798 4.78057 0.859467C4.08127 1.18083 3.4423 1.59841 2.88685 2.09706C2.32847 2.59431 1.86302 3.16905 1.5084 3.7992C1.15279 4.4281 0.906216 5.10202 0.777183 5.79769C0.646923 6.49248 0.576828 7.19528 0.567529 7.89979C0.556672 8.22172 0.555526 8.54472 0.549805 8.86669V33.1367C0.555526 33.4627 0.556672 33.7785 0.567529 34.1047C0.576831 34.8091 0.646926 35.5119 0.777183 36.2067C0.90586 36.9027 1.15245 37.577 1.5084 38.2062C1.86286 38.8343 2.32837 39.4067 2.88685 39.9012C3.4402 40.4021 4.07958 40.8199 4.78057 41.1388C5.48072 41.4583 6.2304 41.6816 7.00449 41.8012C7.77972 41.9155 8.56339 41.9775 9.34894 41.9868C9.71055 41.9939 10.0659 41.998 10.4241 41.998C10.8519 42.0001 11.2758 42.0001 11.7048 42.0001H129.401C129.822 42.0001 130.249 42.0001 130.669 41.998C131.026 41.998 131.391 41.9939 131.748 41.9868C132.532 41.978 133.314 41.916 134.088 41.8012C134.864 41.6808 135.617 41.4576 136.32 41.1388C137.021 40.8197 137.659 40.4019 138.212 39.9012C138.769 39.4048 139.236 38.8328 139.595 38.2062C139.948 37.5766 140.192 36.9023 140.319 36.2067C140.449 35.5118 140.522 34.8092 140.536 34.1047C140.541 33.7785 140.541 33.4627 140.541 33.1367C140.55 32.7552 140.55 32.3758 140.55 31.9882V10.0131C140.55 9.62855 140.55 9.24711 140.541 8.86669C140.541 8.54472 140.541 8.22172 140.536 7.89975C140.522 7.19518 140.449 6.49253 140.319 5.79765C140.192 5.10238 139.948 4.42851 139.595 3.79916C138.872 2.53609 137.727 1.50796 136.32 0.859373C135.617 0.541482 134.864 0.319589 134.088 0.201023C133.314 0.0852944 132.532 0.0232447 131.748 0.0154245C131.391 0.0103005 131.026 0.0041475 130.669 0.0021C130.249 0 129.822 0 129.401 0V0.0001365Z" fill="#A6A6A6"/>
<path d="M10.4299 41.0814C10.0734 41.0814 9.72557 41.0774 9.37191 41.0702C8.63927 41.0616 7.90835 41.0044 7.18513 40.899C6.51076 40.7947 5.85748 40.6008 5.24684 40.3237C4.64179 40.0488 4.08994 39.6884 3.61243 39.2562C3.128 38.8292 2.7247 38.3339 2.41849 37.7899C2.10891 37.2424 1.89466 36.6556 1.78321 36.0498C1.66285 35.399 1.59773 34.7408 1.58842 34.0811C1.581 33.8597 1.57129 33.1223 1.57129 33.1223V8.86675C1.57129 8.86675 1.58163 8.14077 1.58848 7.92749C1.5974 7.2688 1.66214 6.61168 1.78214 5.96181C1.89379 5.35441 2.10821 4.76588 2.41795 4.21661C2.72303 3.67304 3.1241 3.17735 3.60561 2.74876C4.08657 2.3161 4.64019 1.95383 5.24626 1.67517C5.8555 1.39889 6.50755 1.20636 7.18055 1.10403C7.90615 0.997523 8.63961 0.939941 9.37479 0.931766L10.4305 0.918945H130.664L131.732 0.93228C132.46 0.940049 133.187 0.997118 133.906 1.103C134.586 1.20662 135.245 1.40049 135.861 1.67824C137.075 2.23983 138.063 3.12832 138.686 4.21917C138.991 4.76465 139.202 5.34838 139.313 5.95053C139.434 6.60574 139.502 7.26802 139.516 7.93211C139.519 8.22947 139.519 8.54888 139.519 8.86675C139.529 9.2605 139.529 9.63528 139.529 10.0131V31.9882C139.529 32.3697 139.529 32.7419 139.519 33.1172C139.519 33.4587 139.519 33.7715 139.515 34.0934C139.501 34.7456 139.434 35.3961 139.315 36.0396C139.206 36.6497 138.993 37.2411 138.683 37.7931C138.375 38.3311 137.974 38.8221 137.495 39.248C137.017 39.6825 136.464 40.045 135.858 40.3217C135.243 40.601 134.585 40.7956 133.906 40.899C133.183 41.005 132.452 41.0622 131.719 41.0702C131.377 41.0774 131.018 41.0814 130.669 41.0814L129.401 41.0835L10.4299 41.0814Z" fill="black"/>
<path d="M29.5278 21.3159C29.5404 20.4395 29.7998 19.5802 30.2818 18.818C30.7639 18.0557 31.4529 17.4153 32.2849 16.9563C31.7563 16.2789 31.0591 15.7214 30.2486 15.3281C29.438 14.9348 28.5364 14.7166 27.6154 14.6907C25.6508 14.5056 23.7462 15.7458 22.7451 15.7458C21.7246 15.7458 20.1832 14.7091 18.5233 14.7397C17.4497 14.7709 16.4034 15.0511 15.4863 15.553C14.5692 16.055 13.8126 16.7616 13.2903 17.604C11.0276 21.1198 12.7154 26.2869 14.8828 29.1289C15.9672 30.5205 17.2346 32.075 18.8929 32.0198C20.5157 31.9594 21.1218 31.0911 23.0806 31.0911C25.0213 31.0911 25.5899 32.0198 27.2819 31.9848C29.0232 31.9594 30.1203 30.587 31.1667 29.1822C31.9458 28.1906 32.5454 27.0947 32.9432 25.9351C31.9315 25.551 31.0682 24.9083 30.4608 24.0868C29.8535 23.2654 29.529 22.3017 29.5278 21.3159Z" fill="white"/>
<path d="M26.3315 12.8214C27.2809 11.7985 27.7487 10.4837 27.6354 9.15625C26.1849 9.29298 24.845 9.91517 23.8827 10.8988C23.4122 11.3794 23.0519 11.9384 22.8223 12.5441C22.5927 13.1497 22.4984 13.7899 22.5447 14.4283C23.2702 14.435 23.9879 14.2939 24.6439 14.0155C25.2998 13.7372 25.8768 13.3289 26.3315 12.8214Z" fill="white"/>
<path d="M50.0404 28.4971H44.5026L43.1727 32.0213H40.8271L46.0725 18.9824H48.5095L53.7548 32.0213H51.3692L50.0404 28.4971ZM45.0762 26.8708H49.4658L47.3019 21.1511H47.2413L45.0762 26.8708Z" fill="white"/>
<path d="M65.0831 27.268C65.0831 30.2222 63.3214 32.1202 60.6627 32.1202C59.9892 32.1518 59.3195 32.0126 58.73 31.7184C58.1406 31.4243 57.6554 30.9871 57.33 30.457H57.2797V35.1656H55.1055V22.5143H57.21V24.0955H57.25C57.5904 23.5679 58.0838 23.133 58.6777 22.837C59.2716 22.5411 59.9438 22.3952 60.6227 22.4148C63.311 22.4148 65.0831 24.3221 65.0831 27.268ZM62.8484 27.268C62.8484 25.3434 61.7401 24.078 60.0492 24.078C58.388 24.078 57.2706 25.37 57.2706 27.268C57.2706 29.1835 58.388 30.4662 60.0492 30.4662C61.7401 30.4662 62.8484 29.2101 62.8484 27.268Z" fill="white"/>
<path d="M76.7413 27.268C76.7413 30.2222 74.9796 32.1202 72.3209 32.1202C71.6474 32.1518 70.9777 32.0125 70.3882 31.7184C69.7988 31.4243 69.3136 30.9871 68.9882 30.457H68.9379V35.1656H66.7637V22.5143H68.8682V24.0954H68.9082C69.2486 23.5679 69.742 23.133 70.3359 22.837C70.9298 22.5411 71.602 22.3952 72.2809 22.4148C74.9693 22.4148 76.7413 24.3221 76.7413 27.268ZM74.5066 27.268C74.5066 25.3434 73.3983 24.078 71.7074 24.078C70.0462 24.078 68.9288 25.37 68.9288 27.268C68.9288 29.1834 70.0462 30.4662 71.7074 30.4662C73.3983 30.4662 74.5066 29.2101 74.5066 27.268H74.5066Z" fill="white"/>
<path d="M84.4464 28.388C84.6075 29.681 86.0071 30.53 87.9196 30.53C89.7522 30.53 91.0707 29.681 91.0707 28.5151C91.0707 27.503 90.2755 26.897 88.3926 26.4817L86.5098 26.0747C83.842 25.4963 82.6035 24.3766 82.6035 22.5596C82.6035 20.3099 84.788 18.7646 87.8899 18.7646C90.9599 18.7646 93.0644 20.3099 93.1352 22.5596H90.9404C90.8091 21.2584 89.6105 20.473 87.8591 20.473C86.1076 20.473 84.9091 21.2676 84.9091 22.4243C84.9091 23.3461 85.6746 23.8885 87.5471 24.3038L89.1478 24.6565C92.1286 25.2892 93.3672 26.3638 93.3672 28.271C93.3672 30.7104 91.2021 32.2382 87.7585 32.2382C84.5366 32.2382 82.3612 30.7463 82.2207 28.3879L84.4464 28.388Z" fill="white"/>
<path d="M98.0596 20.2646V22.5144H100.074V24.0596H98.0596V29.3004C98.0596 30.1146 98.4629 30.4939 99.3483 30.4939C99.5875 30.4902 99.8262 30.4751 100.064 30.4488V31.9848C99.6655 32.0516 99.2608 32.0818 98.8559 32.0751C96.7114 32.0751 95.8751 31.3522 95.8751 29.5085V24.0596H94.335V22.5144H95.875V20.2646H98.0596Z" fill="white"/>
<path d="M101.24 27.2681C101.24 24.277 103.203 22.3975 106.264 22.3975C109.335 22.3975 111.289 24.277 111.289 27.2681C111.289 30.2673 109.345 32.1387 106.264 32.1387C103.184 32.1387 101.24 30.2673 101.24 27.2681ZM109.073 27.2681C109.073 25.2163 108.026 24.0053 106.264 24.0053C104.502 24.0053 103.456 25.2255 103.456 27.2681C103.456 29.3281 104.502 30.5298 106.264 30.5298C108.026 30.5298 109.073 29.3281 109.073 27.2681H109.073Z" fill="white"/>
<path d="M113.081 22.5142H115.155V24.1323H115.205C115.345 23.6269 115.675 23.1803 116.139 22.8675C116.603 22.5548 117.173 22.3949 117.753 22.4147C118.003 22.414 118.253 22.4384 118.498 22.4875V24.3127C118.181 24.226 117.852 24.1862 117.521 24.1948C117.205 24.1833 116.89 24.2333 116.598 24.3413C116.306 24.4494 116.043 24.6129 115.828 24.8207C115.612 25.0285 115.45 25.2756 115.351 25.5451C115.252 25.8146 115.22 26.1001 115.255 26.382V32.0206H113.081L113.081 22.5142Z" fill="white"/>
<path d="M128.523 29.2286C128.23 30.9543 126.358 32.1387 123.962 32.1387C120.88 32.1387 118.968 30.2858 118.968 27.3132C118.968 24.3313 120.891 22.3975 123.87 22.3975C126.801 22.3975 128.644 24.2042 128.644 27.0866V27.7551H121.163V27.873C121.128 28.2229 121.177 28.5754 121.306 28.907C121.435 29.2386 121.641 29.5418 121.91 29.7965C122.18 30.0512 122.506 30.2515 122.869 30.3841C123.231 30.5167 123.621 30.5786 124.012 30.5657C124.526 30.6089 125.041 30.5021 125.482 30.2612C125.923 30.0203 126.265 29.6581 126.458 29.2286L128.523 29.2286ZM121.173 26.3914H126.468C126.488 26.0768 126.435 25.762 126.312 25.4667C126.19 25.1714 126.001 24.9021 125.757 24.6755C125.513 24.449 125.219 24.2701 124.895 24.1502C124.57 24.0303 124.221 23.9718 123.87 23.9786C123.516 23.9767 123.165 24.0378 122.838 24.1582C122.51 24.2787 122.212 24.4562 121.961 24.6806C121.711 24.9049 121.512 25.1715 121.376 25.4652C121.241 25.7588 121.172 26.0736 121.173 26.3914V26.3914Z" fill="white"/>
<path d="M44.8038 9.16727C45.2596 9.13791 45.717 9.19971 46.143 9.34822C46.569 9.49672 46.9529 9.72823 47.2672 10.026C47.5814 10.3238 47.8181 10.6805 47.9601 11.0704C48.1021 11.4602 48.146 11.8735 48.0885 12.2803C48.0885 14.2819 46.8832 15.4324 44.8038 15.4324H42.2822V9.16727H44.8038ZM43.3665 14.5464H44.6827C45.0084 14.5639 45.3343 14.516 45.6368 14.4061C45.9393 14.2963 46.2107 14.1273 46.4312 13.9114C46.6517 13.6956 46.8158 13.4383 46.9116 13.1584C47.0074 12.8784 47.0324 12.5828 46.9848 12.2931C47.0289 12.0045 47.0014 11.7108 46.9042 11.4329C46.8069 11.155 46.6424 10.8998 46.4224 10.6857C46.2023 10.4716 45.9323 10.3038 45.6315 10.1943C45.3307 10.0849 45.0067 10.0365 44.6827 10.0526H43.3665V14.5464Z" fill="white"/>
<path d="M49.3135 13.0665C49.2804 12.7558 49.32 12.4423 49.4298 12.1461C49.5396 11.8499 49.7171 11.5776 49.951 11.3466C50.185 11.1157 50.4701 10.9311 50.7881 10.8048C51.1062 10.6785 51.4501 10.6133 51.7979 10.6133C52.1457 10.6133 52.4897 10.6785 52.8077 10.8048C53.1258 10.9311 53.4109 11.1157 53.6448 11.3466C53.8787 11.5776 54.0563 11.8499 54.1661 12.1461C54.2759 12.4423 54.3155 12.7558 54.2823 13.0665C54.3161 13.3775 54.277 13.6914 54.1675 13.9881C54.058 14.2847 53.8805 14.5576 53.6465 14.789C53.4126 15.0204 53.1272 15.2054 52.8088 15.3319C52.4905 15.4585 52.1461 15.5239 51.7979 15.5239C51.4497 15.5239 51.1054 15.4585 50.787 15.3319C50.4686 15.2054 50.1833 15.0204 49.9493 14.789C49.7153 14.5576 49.5379 14.2847 49.4284 13.9881C49.3189 13.6914 49.2798 13.3775 49.3135 13.0665ZM53.2129 13.0665C53.2129 12.0416 52.6999 11.4423 51.7996 11.4423C50.8959 11.4423 50.3875 12.0416 50.3875 13.0665C50.3875 14.0996 50.8959 14.6943 51.7996 14.6943C52.7 14.6943 53.2129 14.0955 53.2129 13.0665H53.2129Z" fill="white"/>
<path d="M60.8875 15.4322H59.8089L58.7201 11.9499H58.6379L57.5536 15.4322H56.4853L55.0332 10.7041H56.0878L57.0315 14.3119H57.1092L58.1923 10.7041H59.1897L60.2728 14.3119H60.3551L61.2942 10.7041H62.3339L60.8875 15.4322Z" fill="white"/>
<path d="M63.5547 10.7043H64.5555V11.4554H64.6332C64.765 11.1856 64.9873 10.9595 65.2691 10.8085C65.5509 10.6575 65.8782 10.5892 66.2053 10.6131C66.4617 10.5958 66.7191 10.6304 66.9584 10.7145C67.1978 10.7986 67.413 10.93 67.5881 11.0989C67.7633 11.2678 67.8938 11.4699 67.9701 11.6902C68.0464 11.9105 68.0664 12.1434 68.0288 12.3716V15.4323H66.9891V12.6059C66.9891 11.8461 66.6212 11.4682 65.8523 11.4682C65.6783 11.461 65.5045 11.4875 65.343 11.5462C65.1815 11.6048 65.036 11.6941 64.9165 11.8079C64.797 11.9217 64.7064 12.0573 64.6508 12.2055C64.5952 12.3537 64.5759 12.5109 64.5944 12.6664V15.4324H63.5547L63.5547 10.7043Z" fill="white"/>
<path d="M69.6855 8.8584H70.7252V15.4322H69.6855V8.8584Z" fill="white"/>
<path d="M72.1709 13.0666C72.1378 12.7558 72.1774 12.4423 72.2873 12.1461C72.3971 11.8499 72.5746 11.5776 72.8086 11.3466C73.0425 11.1157 73.3277 10.9311 73.6458 10.8048C73.9638 10.6785 74.3078 10.6133 74.6556 10.6133C75.0034 10.6133 75.3474 10.6785 75.6655 10.8048C75.9835 10.9311 76.2687 11.1157 76.5026 11.3466C76.7366 11.5776 76.9141 11.8499 77.0239 12.1461C77.1338 12.4423 77.1734 12.7558 77.1403 13.0666C77.174 13.3776 77.1348 13.6915 77.0253 13.9882C76.9158 14.2848 76.7383 14.5576 76.5043 14.7891C76.2703 15.0205 75.9849 15.2054 75.6666 15.332C75.3482 15.4586 75.0038 15.5239 74.6556 15.5239C74.3074 15.5239 73.963 15.4586 73.6446 15.332C73.3263 15.2054 73.0409 15.0205 72.8069 14.7891C72.5729 14.5576 72.3954 14.2848 72.2859 13.9882C72.1764 13.6915 72.1372 13.3776 72.1709 13.0666ZM76.0703 13.0666C76.0703 12.0417 75.5573 11.4424 74.657 11.4424C73.7533 11.4424 73.2449 12.0417 73.2449 13.0666C73.2449 14.0997 73.7533 14.6944 74.657 14.6944C75.5573 14.6944 76.0703 14.0955 76.0703 13.0666H76.0703Z" fill="white"/>
<path d="M78.2344 14.0955C78.2344 13.2444 78.9405 12.7538 80.1938 12.684L81.6208 12.6102V12.2021C81.6208 11.7028 81.2529 11.4208 80.5423 11.4208C79.9619 11.4208 79.5597 11.612 79.4443 11.9463H78.4377C78.544 11.1342 79.3952 10.6133 80.5903 10.6133C81.911 10.6133 82.6559 11.2034 82.6559 12.2021V15.4326H81.6551V14.7682H81.5728C81.4059 15.0065 81.1714 15.2008 80.8934 15.3312C80.6154 15.4616 80.3038 15.5235 79.9904 15.5105C79.7693 15.5312 79.5457 15.51 79.3343 15.4483C79.1228 15.3867 78.928 15.286 78.7626 15.1527C78.5971 15.0194 78.4647 14.8564 78.3737 14.6743C78.2827 14.4922 78.2352 14.2951 78.2344 14.0955ZM81.6208 13.6915V13.2962L80.3343 13.37C79.6088 13.4136 79.2798 13.6351 79.2798 14.0519C79.2798 14.4774 79.6911 14.7251 80.2567 14.7251C80.4224 14.7401 80.5898 14.7251 80.7489 14.6809C80.908 14.6367 81.0556 14.5643 81.1829 14.4678C81.3102 14.3714 81.4145 14.253 81.4897 14.1196C81.565 13.9862 81.6096 13.8406 81.6208 13.6915Z" fill="white"/>
<path d="M84.0225 13.0661C84.0225 11.5721 84.8782 10.6257 86.2092 10.6257C86.5385 10.6121 86.8652 10.6828 87.1513 10.8297C87.4374 10.9766 87.671 11.1935 87.8248 11.4552H87.9025V8.8584H88.9422V15.4322H87.9459V14.6852H87.8636C87.698 14.945 87.4562 15.1593 87.1646 15.3047C86.873 15.4501 86.5426 15.5211 86.2093 15.5101C84.8691 15.5101 84.0225 14.5637 84.0225 13.0661ZM85.0965 13.0661C85.0965 14.0689 85.6232 14.6724 86.5041 14.6724C87.3803 14.6724 87.9219 14.0602 87.9219 13.0702C87.9219 12.0848 87.3747 11.4639 86.5041 11.4639C85.6289 11.4639 85.0964 12.0715 85.0964 13.0661H85.0965Z" fill="white"/>
<path d="M93.2442 13.0665C93.2111 12.7558 93.2507 12.4423 93.3604 12.1461C93.4702 11.8499 93.6478 11.5776 93.8817 11.3466C94.1156 11.1157 94.4007 10.9311 94.7188 10.8048C95.0368 10.6785 95.3808 10.6133 95.7286 10.6133C96.0764 10.6133 96.4203 10.6785 96.7384 10.8048C97.0564 10.9311 97.3415 11.1157 97.5755 11.3466C97.8094 11.5776 97.9869 11.8499 98.0967 12.1461C98.2065 12.4423 98.2461 12.7558 98.213 13.0665C98.2467 13.3775 98.2076 13.6914 98.0981 13.9881C97.9886 14.2847 97.8112 14.5576 97.5772 14.789C97.3432 15.0204 97.0579 15.2054 96.7395 15.3319C96.4211 15.4585 96.0768 15.5239 95.7286 15.5239C95.3804 15.5239 95.036 15.4585 94.7177 15.3319C94.3993 15.2054 94.114 15.0204 93.88 14.789C93.646 14.5576 93.4685 14.2847 93.3591 13.9881C93.2496 13.6914 93.2104 13.3775 93.2442 13.0665ZM97.1436 13.0665C97.1436 12.0416 96.6306 11.4423 95.7303 11.4423C94.8266 11.4423 94.3182 12.0416 94.3182 13.0665C94.3182 14.0996 94.8266 14.6943 95.7303 14.6943C96.6306 14.6943 97.1436 14.0955 97.1436 13.0665Z" fill="white"/>
<path d="M99.6074 10.7043H100.608V11.4554H100.686C100.818 11.1856 101.04 10.9595 101.322 10.8085C101.604 10.6575 101.931 10.5892 102.258 10.6131C102.514 10.5958 102.772 10.6304 103.011 10.7145C103.251 10.7986 103.466 10.93 103.641 11.0989C103.816 11.2678 103.947 11.4699 104.023 11.6902C104.099 11.9105 104.119 12.1434 104.082 12.3716V15.4323H103.042V12.6059C103.042 11.8461 102.674 11.4682 101.905 11.4682C101.731 11.461 101.557 11.4875 101.396 11.5462C101.234 11.6048 101.089 11.6941 100.969 11.8079C100.85 11.9217 100.759 12.0573 100.704 12.2055C100.648 12.3537 100.629 12.5109 100.647 12.6664V15.4324H99.6074V10.7043Z" fill="white"/>
<path d="M109.956 9.52734V10.726H111.098V11.512H109.956V13.9432C109.956 14.4385 110.184 14.6553 110.701 14.6553C110.834 14.6549 110.966 14.6478 111.098 14.6338V15.411C110.911 15.441 110.722 15.457 110.532 15.4587C109.376 15.4587 108.915 15.0937 108.915 14.1821V11.5119H108.079V10.726H108.915V9.52734H109.956Z" fill="white"/>
<path d="M112.519 8.8584H113.549V11.4639H113.631C113.77 11.1916 113.998 10.9642 114.285 10.8126C114.573 10.6611 114.905 10.5927 115.238 10.6169C115.493 10.6045 115.748 10.6427 115.984 10.7288C116.221 10.815 116.433 10.9469 116.607 11.1153C116.78 11.2837 116.91 11.4843 116.987 11.7028C117.064 11.9213 117.086 12.1524 117.052 12.3796V15.4322H116.011V12.6098C116.011 11.8546 115.619 11.4721 114.885 11.4721C114.706 11.459 114.526 11.481 114.358 11.5367C114.19 11.5924 114.037 11.6804 113.911 11.7946C113.785 11.9088 113.688 12.0464 113.627 12.1977C113.566 12.349 113.542 12.5105 113.558 12.6708V15.4322H112.519L112.519 8.8584Z" fill="white"/>
<path d="M123.114 14.1551C122.973 14.5872 122.666 14.961 122.249 15.2111C121.832 15.4611 121.33 15.5715 120.831 15.523C120.484 15.5312 120.139 15.4715 119.82 15.3481C119.501 15.2247 119.216 15.0405 118.985 14.8083C118.753 14.5761 118.581 14.3015 118.479 14.0035C118.378 13.7055 118.35 13.3912 118.397 13.0826C118.351 12.7729 118.38 12.458 118.481 12.1591C118.582 11.8602 118.754 11.5843 118.984 11.35C119.214 11.1158 119.498 10.9287 119.816 10.8015C120.134 10.6742 120.478 10.6097 120.826 10.6124C122.292 10.6124 123.177 11.5112 123.177 12.9959V13.3215H119.457V13.3738C119.44 13.5473 119.465 13.7219 119.528 13.8865C119.591 14.0511 119.692 14.202 119.824 14.3295C119.956 14.457 120.117 14.5584 120.295 14.6271C120.473 14.6957 120.666 14.7302 120.86 14.7283C121.108 14.7551 121.36 14.7149 121.583 14.6128C121.807 14.5107 121.991 14.3514 122.113 14.1551L123.114 14.1551ZM119.457 12.6314H122.117C122.131 12.4727 122.107 12.3133 122.047 12.1634C121.987 12.0136 121.893 11.8766 121.771 11.7612C121.649 11.6459 121.502 11.5547 121.338 11.4937C121.174 11.4326 120.998 11.4029 120.821 11.4066C120.641 11.4045 120.462 11.4348 120.296 11.4957C120.129 11.5565 119.978 11.6467 119.851 11.7608C119.724 11.875 119.623 12.0108 119.556 12.1603C119.488 12.3098 119.454 12.47 119.457 12.6314H119.457Z" fill="white"/>
</g>
<defs>
<clipPath id="clip0_242_5281">
<rect width="140" height="42" fill="white" transform="translate(0.549805)"/>
</clipPath>
</defs>
</svg>
